<?xml version="1.0" encoding="UTF-8"?>
<svg width="29px" height="25px" viewBox="0 0 29 25" version="1.1" xmlns="http://www.w3.org/2000/svg" xmlns:xlink="http://www.w3.org/1999/xlink">
    <!-- Generator: sketchtool 63.1 (101010) - https://sketch.com -->
    <title>1972E778-ADE5-48F2-BDC9-4A8762902473</title>
    <desc>Created with sketchtool.</desc>
    <g id="Nonprofit" stroke="none" stroke-width="1" fill="none" fill-rule="evenodd">
        <g id="review-entity-type/nonprofit@2x" transform="translate(-425.000000, -2452.000000)" fill="#FD8550">
            <g id="FAQ" transform="translate(0.000000, 2147.000000)">
                <g id="Miscellaneous/Curve/Small/Orange-1" transform="translate(439.500000, 315.500000) scale(-1, 1) translate(-439.500000, -315.500000) translate(425.000000, 301.000000)">
                    <path d="M29,27.6111593 C29,26.8653632 28.4011421,26.26244 27.6456822,26.2267218 C23.4290268,26.0238424 19.2036713,24.8351407 15.3292205,22.5663206 C8.57503175,18.6130302 4.23077469,12.1651806 2.7851057,5.11583658 C2.65315397,4.46719406 2.07894643,4 1.40758761,4 C0.517275919,4 -0.148282822,4.8058026 0.0286195009,5.66589687 C1.62654049,13.4567508 6.42610352,20.5818174 13.8908016,24.9522964 C18.184308,27.465429 22.8678695,28.7798588 27.5412808,28.9984542 C28.3373413,29.0356011 29,28.3983884 29,27.612588 L29,27.6111593 Z" id="curve" transform="translate(14.500000, 16.500000) scale(-1, -1) rotate(-360.000000) translate(-14.500000, -16.500000) "></path>
                </g>
            </g>
        </g>
    </g>
</svg>