<?xml version="1.0" encoding="UTF-8"?>
<svg width="26px" height="33px" viewBox="0 0 26 33" version="1.1" xmlns="http://www.w3.org/2000/svg" xmlns:xlink="http://www.w3.org/1999/xlink">
    <!-- Generator: sketchtool 63.1 (101010) - https://sketch.com -->
    <title>CCB4D9D0-6470-4A84-A05B-DF4C0553619C</title>
    <desc>Created with sketchtool.</desc>
    <g id="Nonprofit" stroke="none" stroke-width="1" fill="none" fill-rule="evenodd" opacity="0.75">
        <g id="review-entity-type/nonprofit@2x" transform="translate(-282.000000, -1228.000000)">
            <g id="Information" transform="translate(255.000000, 770.000000)">
                <g id="Modul/Tab/Inactive-Copy-4" transform="translate(0.000000, 435.000000)">
                    <g id="icon/review-entity-types/color/501c3-status" transform="translate(24.000000, 23.500000)">
                        <g id="20200406_ICON_ICON-140" transform="translate(4.000000, 0.000000)">
                            <path d="M19,2.19986248 L2.11,2.19986248 C1.50464681,2.19788947 0.907733536,2.34197198 0.37,2.62 C0.115691135,3.15358197 -0.0109817218,3.73901598 -9.99417563e-16,4.33 L-9.99417563e-16,27.21 C-5.55328353e-16,28.2337357 0.406677404,29.2155418 1.13056782,29.9394322 C1.85445825,30.6633226 2.83626435,31.0700223 3.86,31.0700223 L20.17,31.0700223 C20.7721603,31.0720828 21.3658259,30.9279559 21.9,30.65 C22.1689525,30.1164938 22.3093607,29.5274646 22.31,28.93 L22.31,5.47 C22.3073738,4.59660167 21.9565149,3.76031938 21.3351833,3.14649639 C20.7138518,2.5326734 19.8733657,2.19200762 19,2.19986248 Z M16.92,13 C16.31,13.65 13.78,15.75 12.51,16.81 C12.3150649,16.9788749 12.0485272,17.0389398 11.8,16.97 C11.6767471,16.9500004 11.5620366,16.8943831 11.47,16.81 C10.32,15.81 7.63,13.59 7.06,13 C6.09280407,12.0101706 5.7607748,10.5623686 6.2,9.25 C6.24161328,8.96691601 6.31197703,8.68881166 6.41,8.42 C6.48889971,8.1988355 6.59291314,7.98745336 6.72,7.79 C6.76281247,7.78049826 6.80718753,7.78049826 6.85,7.79 C6.94306937,7.78007301 7.03693063,7.78007301 7.13,7.79 C7.6274351,7.29432946 8.29785495,7.01110396 9,7 C9.97059444,7.01852468 10.8660401,7.52644554 11.38,8.35 C11.5908067,8.20480081 11.8193298,8.08717861 12.06,8 C12.3287913,7.88485048 12.6176055,7.82368982 12.91,7.82 C12.9662512,7.81029604 13.0237488,7.81029604 13.08,7.82 L13.08,7.82 C13.589759,7.30848532 14.277996,7.0145508 15,7 C16.2804753,7.04771354 17.3892931,7.9034316 17.76,9.13 C18.2729681,10.4723788 17.9433273,11.9910807 16.92,13 L16.92,13 Z" id="Shape" fill="#F9F2D7" fill-rule="nonzero"></path>
                            <path d="M16.92,13 C16.31,13.65 13.78,15.75 12.51,16.81 C12.3150649,16.9788749 12.0485272,17.0389398 11.8,16.97 C11.6767471,16.9500004 11.5620366,16.8943831 11.47,16.81 C10.32,15.81 7.63,13.59 7.06,13 C6.09280407,12.0101706 5.7607748,10.5623686 6.2,9.25 C6.04276169,10.4228872 6.43364971,11.6029265 7.26,12.45 C7.86,13.06 10.66,15.45 11.86,16.45 C11.9563318,16.535698 12.0736425,16.5943534 12.2,16.62 C13.41,15.62 14.67,14.51 15.1,14.06 C16.177239,13.0041439 16.5301393,11.4121715 16,10 C15.5914148,8.72608246 14.4270525,7.84580853 13.09,7.8 C13.600467,7.29818782 14.2842812,7.01177351 15,7 C16.2804753,7.04771354 17.3892931,7.9034316 17.76,9.13 C18.2729681,10.4723788 17.9433273,11.9910807 16.92,13 Z" id="Path" fill="#F9F2D7" fill-rule="nonzero"></path>
                            <path d="M11.38,8.38 C10.9938353,8.6613493 10.6731573,9.02296492 10.44,9.44 C10.3414145,9.60889389 10.1605613,9.71273659 9.965,9.71273659 C9.76943865,9.71273659 9.58858547,9.60889389 9.49,9.44 C9.01579303,8.5446961 8.13520668,7.93649451 7.13,7.81 C7.62420775,7.30698701 8.29502218,7.01642034 9,7 C9.97648174,7.02501157 10.8732001,7.5449575 11.38,8.38 Z" id="Path" fill="#F9F2D7" fill-rule="nonzero"></path>
                            <path d="M24,4.56 L24,27.44 C24,28.8951667 23.1799811,30.2261199 21.88,30.88 C21.3422665,31.158028 20.7453532,31.3021105 20.14,31.3000229 L3.83,31.3000229 C1.70990588,31.2835221 0,29.5601581 0,27.44 L0,4.56 C0.00298559309,3.9671656 0.139714996,3.3826474 0.4,2.85 C1.04568427,1.54319944 2.37243279,0.711564069 3.83,0.7 L20.17,0.7 C22.2900941,0.716477912 24,2.43984185 24,4.56 Z" id="Path" stroke="#1D1D1B" stroke-width="1.4" stroke-linecap="round" stroke-linejoin="round"></path>
                            <line x1="13.7" y1="26.15" x2="18.79" y2="26.15" id="Path" stroke="#1D1D1B" stroke-width="1.4" stroke-linecap="round" stroke-linejoin="round"></line>
                            <path d="M16.93,13 C16.31,13.64 13.78,15.75 12.52,16.81 C12.3232075,16.9753777 12.056868,17.0316466 11.81,16.96 C11.6852221,16.941546 11.5677489,16.8897196 11.47,16.81 C10.32,15.81 7.63,13.58 7.06,13 C5.86394253,11.8102653 5.64825897,9.95206846 6.54,8.52 C7.0339417,7.61437039 7.96907496,7.03656447 9,7 C10.0639587,7.04039193 11.0267965,7.64168987 11.53,8.58 C11.559215,8.63217097 11.6003292,8.67671135 11.65,8.71 C11.7668273,8.81153529 11.9228145,8.85574786 12.0755443,8.83061512 C12.228274,8.80548237 12.3618686,8.7136171 12.44,8.58 L12.44,8.58 C12.9371909,7.62202369 13.9207903,7.01495846 15,7 C16.2788453,7.05831601 17.385178,7.90903392 17.77,9.13 C18.2776108,10.4727799 17.9486185,11.9884946 16.93,13 L16.93,13 Z" id="Path" stroke="#1D1D1B" stroke-width="1.4" stroke-linecap="round" stroke-linejoin="round"></path>
                        </g>
                    </g>
                </g>
            </g>
        </g>
    </g>
</svg>