<?xml version="1.0" encoding="UTF-8"?>
<svg width="32px" height="29px" viewBox="0 0 32 29" version="1.1" xmlns="http://www.w3.org/2000/svg" xmlns:xlink="http://www.w3.org/1999/xlink">
    <!-- Generator: sketchtool 63.1 (101010) - https://sketch.com -->
    <title>1E0C0337-E97F-437D-80C3-899DD014626F</title>
    <desc>Created with sketchtool.</desc>
    <g id="Nonprofit" stroke="none" stroke-width="1" fill="none" fill-rule="evenodd" opacity="0.75">
        <g id="review-entity-type/nonprofit@2x" transform="translate(-279.000000, -1056.000000)">
            <g id="Information" transform="translate(255.000000, 770.000000)">
                <g id="Modul/Tab/Inactive-Copy-2" transform="translate(0.000000, 261.000000)">
                    <g id="icon/review-entity-types/color/advantages-disadvantages" transform="translate(24.000000, 23.500000)">
                        <g id="20200406_ICON_ICON-138" transform="translate(0.000000, 2.000000)">
                            <path d="M29.92,16.3 L24,26.52 C23.3397548,27.3351766 22.3199633,27.7722937 21.2743126,27.6883218 C20.2286619,27.6043498 19.2916958,27.0100935 18.77,26.1 L17.49,23.87 L14.13,18 L3.89,18 C2.75233635,17.9980389 1.70181824,17.3903433 1.1329445,16.4051199 C0.564070754,15.4198965 0.562948815,14.2062735 1.13,13.22 L7,3 C7.66278763,2.1892723 8.68126573,1.75546464 9.72507623,1.83928881 C10.7688867,1.92311298 11.7050844,2.51389269 12.23,3.42 L13.51,5.65 L16,10 L16.89,11.54 L27.16,11.54 C28.2915158,11.5459874 29.3351845,12.1509401 29.9027713,13.1298217 C30.4703581,14.1087033 30.4769139,15.3150072 29.92,16.3 Z" id="Path" fill="#E6D7EA" fill-rule="nonzero"></path>
                            <path d="M18.94,11.83 L18.94,11.83 L19.75,13.24 C20.3060701,14.223444 20.300488,15.4276553 19.7353245,16.4059018 C19.1701611,17.3841483 18.1297281,17.990494 17,18 L3.89,18 C2.75233635,17.9980389 1.70181824,17.3903433 1.1329445,16.4051199 C0.564070754,15.4198965 0.562948815,14.2062735 1.13,13.22 L7,3 L7.65,1.88 C8.22051982,0.895564861 9.27219272,0.289531181 10.41,0.289531181 C11.5478073,0.289531181 12.5994802,0.895564861 13.17,1.88 L14.46,4.11 L17.87,10" id="Path" stroke="#1D1D1B" stroke-width="1.4" stroke-linecap="round" stroke-linejoin="round"></path>
                            <path d="M12.24,14.76 C11.6830861,13.7750072 11.6896419,12.5687033 12.2572287,11.5898217 C12.8248155,10.6109401 13.8684842,10.0059874 15,10 L28.1,10 C29.2376636,10.0019611 30.2881818,10.6096567 30.8570555,11.5948801 C31.4259292,12.5801035 31.4270512,13.7937265 30.86,14.78 L24.31,26.1 C24.2214853,26.2454569 24.1246579,26.3856896 24.02,26.52 C23.3597548,27.3351766 22.3399633,27.7722937 21.2943126,27.6883218 C20.2486619,27.6043498 19.3116958,27.0100935 18.79,26.1 L17.51,23.87 L14.13,18" id="Path" stroke="#1D1D1B" stroke-width="1.4" stroke-linecap="round" stroke-linejoin="round"></path>
                        </g>
                    </g>
                </g>
            </g>
        </g>
    </g>
</svg>