<?xml version="1.0" encoding="UTF-8"?>
<svg width="20px" height="33px" viewBox="0 0 20 33" version="1.1" xmlns="http://www.w3.org/2000/svg" xmlns:xlink="http://www.w3.org/1999/xlink">
    <!-- Generator: sketchtool 63.1 (101010) - https://sketch.com -->
    <title>2C94D97F-C6DF-476A-80FF-326F2B1CBB66</title>
    <desc>Created with sketchtool.</desc>
    <g id="Nonprofit" stroke="none" stroke-width="1" fill="none" fill-rule="evenodd" opacity="0.75">
        <g id="review-entity-type/nonprofit@2x" transform="translate(-285.000000, -1315.000000)">
            <g id="Information" transform="translate(255.000000, 770.000000)">
                <g id="Modul/Tab/Inactive-Copy-5" transform="translate(0.000000, 522.000000)">
                    <g id="icon/review-entity-types/color/how-to-start-a-nonprofit" transform="translate(24.000000, 23.500000)">
                        <g id="20200406_ICON_ICON-141" transform="translate(7.000000, 0.000000)">
                            <path d="M10.63,29.73 C10.37,30 9.63,30.66 8.87,31.28 C8.79181439,31.2676375 8.71887904,31.2329063 8.66,31.18 C7.93,30.57 6.23,29.18 5.87,28.77 C5.23515858,28.1238451 5.03235237,27.1683159 5.35,26.32 C5.39915624,26.1867272 5.46287553,26.0592886 5.54,25.94 L5.62,25.94 C6.2953675,25.9580114 6.90786241,26.3408207 7.22,26.94 C7.27773433,27.0463179 7.38901758,27.1125198 7.51,27.1125198 C7.63098242,27.1125198 7.74226567,27.0463179 7.8,26.94 C8.02475205,26.5447627 8.37746594,26.2379016 8.8,26.07 C8.96399576,25.9981858 9.14097115,25.9607487 9.32,25.96 L9.42,25.96 C10.2261049,25.9968998 10.9241602,26.5314107 11.17,27.3 C11.4791504,28.146006 11.2683623,29.0945524 10.63,29.73 L10.63,29.73 Z" id="Path" fill="#D5F3E8" fill-rule="nonzero"></path>
                            <path d="M16.6400926,10.35 C16.6515322,12.8281856 15.5859894,15.1891657 13.72,16.82 C13.4873864,17.0233434 13.2436792,17.2136354 12.99,17.39 C12.5485979,17.6307947 12.0946142,17.8477722 11.63,18.04 C11.63,18.04 11.63,18.04 11.63,18.04 C10.63,18.49 11.09,19.12 11.13,20.15 L10.5,21.53 C10.5,21.88 9.5,21.77 9.38,22.04 C9.31373255,22.0503178 9.24626745,22.0503178 9.18,22.04 C8.10304474,22.04 7.23,21.1669553 7.23,20.09 L7.23,18.09 C7.21556049,17.0698008 7.64200797,16.0929809 8.4,15.41 C9.17,15.02 9.95,14.73 10.54,14.36 C10.7867643,14.2025148 11.017826,14.0216839 11.23,13.82 C11.5026814,13.6983398 11.7666418,13.5580064 12.02,13.4 C13.8188592,12.2766246 14.6672719,10.105867 14.1069068,8.06041899 C13.5465417,6.01497097 11.7102348,4.57971161 9.59,4.53 L8.41,4.53 C7.2212742,4.56145443 6.08716213,5.03578432 5.23,5.86 C3.93,6.38 3.81,6.92 3.38,8.26 C3.38,8.4 2.38,9.08 2.31,9.2 C2.25040712,9.2098848 2.18959288,9.2098848 2.13,9.2 C1.09746048,9.17117001 0.256738817,8.36078367 0.19,7.33 C0.190513102,7.12667614 0.220835599,6.92452616 0.28,6.73 C0.796942348,5.11067968 1.78163975,3.68060678 3.11,2.62 C3.84694244,2.24095053 4.63524428,1.97144562 5.45,1.82 C5.94022201,1.71912397 6.43950795,1.66886029 6.94,1.66998105 L8.09,1.66998105 C8.58713317,1.66998105 9.08299862,1.72014482 9.57,1.82 C13.668639,2.59770466 16.6363207,6.17823148 16.6400926,10.35 Z" id="Path" fill="#D5F3E8" fill-rule="nonzero"></path>
                            <path d="M12.11,28.77 C11.72,29.18 10.11,30.51 9.32,31.18 C9.19602433,31.2862153 9.02729268,31.3237112 8.87,31.28 C8.79181439,31.2676375 8.71887904,31.2329063 8.66,31.18 C7.93,30.57 6.23,29.18 5.87,28.77 C5.23515858,28.1238451 5.03235237,27.1683159 5.35,26.32 C5.39915624,26.1867272 5.46287553,26.0592886 5.54,25.94 C5.84196071,25.3500475 6.43785455,24.9680643 7.1,24.94 C7.7753675,24.9580114 8.38786241,25.3408207 8.7,25.94 C8.71841119,25.9738105 8.74618945,26.0015888 8.78,26.02 C8.85376144,26.0841512 8.9521689,26.112298 9.04869658,26.0968536 C9.14522426,26.0814092 9.22993684,26.0239631 9.28,25.94 L9.28,25.94 C9.58866011,25.3469226 10.1918832,24.9651358 10.86,24.94 C11.6687594,24.9783732 12.3675895,25.5174707 12.61,26.29 C12.9537839,27.1423176 12.7571799,28.1174735 12.11,28.77 Z" id="Path" stroke="#1D1D1B" stroke-width="1.4" stroke-linecap="round" stroke-linejoin="round"></path>
                            <path d="M18.12,9.39 C18.1382231,12.19521 16.7776022,14.8304785 14.48,16.44 C14.2350919,16.5828596 13.9812326,16.7097892 13.72,16.82 C12.9545575,17.076676 12.245182,17.4771846 11.63,18 C11.63,18 11.63,18 11.63,18 C11.3097815,18.2914645 11.1311364,18.7070879 11.14,19.14 L11.14,20.14 C11.119381,21.1222325 10.367747,21.9339972 9.39,22.03 C9.32373255,22.0403178 9.25626745,22.0403178 9.19,22.03 C8.11304474,22.03 7.24,21.1569553 7.24,20.08 L7.24,18.08 C7.22556049,17.0598008 7.65200797,16.0829809 8.41,15.4 C9.26893456,14.7320944 10.2227846,14.1961857 11.24,13.81 C11.5126814,13.6883398 11.7766418,13.5480064 12.03,13.39 C13.8288592,12.2666246 14.6772719,10.095867 14.1169068,8.05041899 C13.5565417,6.00497097 11.7202348,4.56971161 9.6,4.52 L8.41,4.52 C6.37262246,4.60810664 4.60903764,5.96378748 4,7.91 C3.76784886,8.66469368 3.09733354,9.20031243 2.31,9.26 C2.25040712,9.2698848 2.18959288,9.2698848 2.13,9.26 C1.07553426,9.22898281 0.226466176,8.38429136 0.19,7.33 C0.190513102,7.12667614 0.220835599,6.92452616 0.28,6.73 C0.796942348,5.11067968 1.78163975,3.68060678 3.11,2.62 C4.21556116,1.72222211 5.52920378,1.11698362 6.93,0.86 C7.4217528,0.769505276 7.9200771,0.719338399 8.42,0.71 L9.57,0.71 C10.0666137,0.719301069 10.5616189,0.769470508 11.05,0.86 C15.148639,1.63770466 18.1163207,5.21823148 18.12,9.39 L18.12,9.39 Z" id="Path" stroke="#1D1D1B" stroke-width="1.4" stroke-linecap="round" stroke-linejoin="round"></path>
                        </g>
                    </g>
                </g>
            </g>
        </g>
    </g>
</svg>