<?xml version="1.0" encoding="UTF-8"?>
<svg width="21px" height="32px" viewBox="0 0 21 32" version="1.1" xmlns="http://www.w3.org/2000/svg" xmlns:xlink="http://www.w3.org/1999/xlink">
    <!-- Generator: sketchtool 63.1 (101010) - https://sketch.com -->
    <title>BC348246-0868-4E84-A7DC-0E192355D368</title>
    <desc>Created with sketchtool.</desc>
    <g id="Nonprofit" stroke="none" stroke-width="1" fill="none" fill-rule="evenodd" opacity="0.75">
        <g id="review-entity-type/nonprofit@2x" transform="translate(-285.000000, -1142.000000)">
            <g id="Information" transform="translate(255.000000, 770.000000)">
                <g id="Modul/Tab/Inactive-Copy-3" transform="translate(0.000000, 348.000000)">
                    <g id="icon/review-entity-types/color/types-of-nonprofit" transform="translate(24.000000, 23.500000)">
                        <g id="20200406_ICON_ICON-139" transform="translate(7.000000, 1.000000)">
                            <path d="M17.57,18 L13.5,18 C12.4363396,17.9977164 11.4373675,17.4889462 10.81,16.63 L8.81,13.85 L8.81,13.85 L2.56,18.4 C2.27578362,18.599581 1.90468071,18.6261924 1.59489531,18.4692066 C1.28510992,18.3122207 1.08712192,17.9972187 1.08,17.65 L1.08,13.65 C1.07799377,13.4115163 1.10146014,13.1735002 1.15,12.94 L4,9.79 L5.19,8.93 L0.74,2.71 L5.22,2.71 C6.01071181,2.69343649 6.75882372,3.06749245 7.22,3.71 L9,6.18 L9.5,6.88 L17.3,1.26 L17.3,7.61 L16.62,8.28 L12.62,11.28 L13.02,11.87 L13.02,11.87 L17.57,18 Z" id="Path" fill="#E0F1FA" fill-rule="nonzero"></path>
                            <path d="M10.16,5.33 L8.16,2.51 C7.53322767,1.6267563 6.51295945,1.10727908 5.43,1.12 L1.43,1.12 C1.08304429,1.12266611 0.766423381,1.31825109 0.608737647,1.62731513 C0.451051913,1.93637917 0.478525656,2.30752264 0.68,2.59 L0.75,2.68 L5.18,8.9" id="Path" stroke="#1D1D1B" stroke-width="1.4" stroke-linecap="round" stroke-linejoin="round"></path>
                            <path d="M8.82,13.9 L10.82,16.68 C11.4473675,17.5389462 12.4463396,18.0477164 13.51,18.05 L17.58,18.05 C17.9302716,18.0547856 18.2528663,17.8602363 18.4120692,17.5481986 C18.5712721,17.2361609 18.5394537,16.8607886 18.33,16.58 L14.33,11 L13.83,10.31" id="Path" stroke="#1D1D1B" stroke-width="1.4" stroke-linecap="round" stroke-linejoin="round"></path>
                            <path d="M11.42,12 L11.1,12.23 L8.82,13.87 L2.56,18.4 C2.27578362,18.599581 1.90468071,18.6261924 1.59489531,18.4692066 C1.28510992,18.3122207 1.08712192,17.9972187 1.08,17.65 L1.08,13.65 C1.07799377,13.4115163 1.10146014,13.1735002 1.15,12.94 C1.31970563,12.1349342 1.78315953,11.4219282 2.45,10.94 L4,9.79 L5.19,8.93 L7.5,7.25 L7.82,7" id="Path" stroke="#1D1D1B" stroke-width="1.4" stroke-linecap="round" stroke-linejoin="round"></path>
                            <path d="M7.5,7.26 L16.5,0.77 C16.7826483,0.550680687 17.1660449,0.512938254 17.4860337,0.672932626 C17.8060224,0.832926997 18.0058665,1.16228981 18,1.52 L18,5.59 C18.0059326,6.65562469 17.4953668,7.65812256 16.63,8.28 L11.12,12.28" id="Path" stroke="#1D1D1B" stroke-width="1.4" stroke-linecap="round" stroke-linejoin="round"></path>
                            <polyline id="Path" stroke="#1D1D1B" stroke-width="1.4" stroke-linecap="round" stroke-linejoin="round" points="8.82 13.88 8.82 13.9 8.82 16.43 8.82 30.3"></polyline>
                            <circle id="Oval" stroke="#1D1D1B" stroke-width="1.4" stroke-linecap="round" stroke-linejoin="round" cx="9.24" cy="9.7" r="2.08"></circle>
                        </g>
                    </g>
                </g>
            </g>
        </g>
    </g>
</svg>